<svg xmlns="http://www.w3.org/2000/svg" viewBox="0 0 124.38 132.59"><defs><style>.cls-1{isolation:isolate;}.cls-2{fill:#c6b80c;stroke:#fff;stroke-miterlimit:10;stroke-width:2px;}.cls-11,.cls-2,.cls-8{mix-blend-mode:soft-light;}.cls-3{fill:#d8d5d4;}.cls-10,.cls-13,.cls-16,.cls-3,.cls-7{mix-blend-mode:multiply;}.cls-4{fill:#453a36;}.cls-5{fill:#2f2722;}.cls-6{fill:#931915;}.cls-7{fill:#b5b2b2;}.cls-11,.cls-8{fill:#fff;}.cls-8{opacity:0.8;}.cls-10,.cls-9{fill:#d8d4d3;}.cls-12{fill:#500e1c;}.cls-13{fill:#b2b2b2;}.cls-14{fill:#3a302b;}.cls-15{fill:#6f150e;}.cls-16{fill:#c6c6c6;}.cls-17{fill:#6d1513;}.cls-18{fill:#931917;}</style></defs><title>L O G O - G N O L - 16_04_21</title><g class="cls-1"><g id="Capa_1" data-name="Capa 1"><circle class="cls-2" cx="184.95" cy="224.25" r="55.39" transform="translate(-232.96 28.6) rotate(-45)"/><path class="cls-3" d="M225.38,294.34c0,3.37-18.47,6.11-41.25,6.11s-41.26-2.74-41.26-6.11,18.47-6.11,41.26-6.11S225.38,291,225.38,294.34Z" transform="translate(-128.56 -167.86)"/><path class="cls-4" d="M184.16,206.68c-1.83-1.23-6.59-4.42-6.68-7.05a.62.62,0,0,0,0-.13H164.2v.08c0,2.24-4.07,5.69-6.06,6.93-5.23,3.27-6.88,11.08-6.88,15.89l0,65.28c0,5.55,2.64,6,5.44,6.59,7.56,1.65,19.66,1.52,27.74.6,4.49-.5,6.19-1,6.19-7.71V222.72C190.65,219.69,189.82,210.48,184.16,206.68Z" transform="translate(-128.56 -167.86)"/><path class="cls-5" d="M177.47,199.74c-.14-5.56,0-28.76,0-28.76h-13s-.3,22.77-.23,28.76Z" transform="translate(-128.56 -167.86)"/><path class="cls-6" d="M177.41,189.57c0-9.46.07-18.59.07-18.59h-13s-.09,9.11-.16,18.59Z" transform="translate(-128.56 -167.86)"/><path class="cls-7" d="M172.43,171a17.71,17.71,0,0,1,1,5.83,18.12,18.12,0,0,1-5.33,12.76h9.32c0-9.46.07-18.59.07-18.59Z" transform="translate(-128.56 -167.86)"/><path class="cls-8" d="M187.61,222c-.09-2.55-.7-8-3.39-10.34a15.69,15.69,0,0,1-2.93-3.2V222Z" transform="translate(-128.56 -167.86)"/><rect class="cls-9" x="24.58" y="56.39" width="35.63" height="54.35"/><path class="cls-10" d="M181.82,224.25c1.27,7.09,0,20.66-1.1,26.77-1.74,9.58-5.11,13.25-10.48,18.62-5,5-10.18,7.09-17.1,8.29v.67h35.63V224.25Z" transform="translate(-128.56 -167.86)"/><rect class="cls-11" x="36.69" y="3.12" width="2.82" height="28.76"/><path class="cls-8" d="M177.48,171h-2.9v28.76h2.89C177.35,194.18,177.48,171,177.48,171Z" transform="translate(-128.56 -167.86)"/><rect class="cls-12" x="34.13" y="5.74" width="16.52" height="5.86" rx="0.78"/><rect class="cls-13" x="35.86" y="5.19" width="13.06" height="0.56"/><rect class="cls-13" x="35.78" y="11.59" width="13.06" height="0.56"/><ellipse class="cls-14" cx="42.4" cy="121.83" rx="17.68" ry="4.21"/><path class="cls-11" d="M158.89,209.42c-3.28,3.28-4.34,10.19-4.34,14.52v60.62c0,5.22,2.37,7,4.32,7.55h0Z" transform="translate(-128.56 -167.86)"/><path class="cls-9" d="M186.79,229.71s-4.67,12.19-2.48,19.37c3.18,10.41,10.32,13.64,18.08,13.64,8.59,0,15.65-3.9,18.22-13.23,2.09-7.63-2.73-19.78-2.73-19.78Z" transform="translate(-128.56 -167.86)"/><path class="cls-15" d="M185.8,239.89s1.87-4.12,20.1-4.12c0,0,13.07,1,13.07,4.12,0,0-4.53,5.06-14,0Z" transform="translate(-128.56 -167.86)"/><path class="cls-9" d="M204.73,290.13s-2.74-15.76.18-28.67c.25-1.11-6.31-1.1-6,0,3.29,13.26.5,28.83.5,28.83-3.77,3-10.82,5-10.82,5h27.76C208.71,293.34,204.73,290.13,204.73,290.13Z" transform="translate(-128.56 -167.86)"/><path class="cls-10" d="M198.74,292.07a20.61,20.61,0,0,1-3.51,1.9h14.4a17.43,17.43,0,0,1-3.71-1.9,7.37,7.37,0,0,1-3.49.6C199.57,292.67,198.74,292.07,198.74,292.07Z" transform="translate(-128.56 -167.86)"/><path class="cls-10" d="M203.11,263.92s-.21-1-1-1a1.15,1.15,0,0,0-1.18,1,206.07,206.07,0,0,1,0,26.18s0,.8,1.19.8a1.11,1.11,0,0,0,1.19-.8A222.66,222.66,0,0,1,203.11,263.92Z" transform="translate(-128.56 -167.86)"/><path class="cls-15" d="M185.8,239.89a16.45,16.45,0,0,0-.2,9.77c3,8.89,9.58,11.65,16.8,11.65,8,0,14.53-3.33,16.92-11.3.9-3,.42-6.86-.35-10.12A9,9,0,0,1,210.9,241c-3.86-1.22-6.35-3.51-13-3.52C189.79,237.43,185.8,239.89,185.8,239.89Z" transform="translate(-128.56 -167.86)"/><path class="cls-16" d="M219,239.89a7.76,7.76,0,0,1-2.92,1.3,20.55,20.55,0,0,1,.1,2.08,21.86,21.86,0,0,1-6.39,15.42,20.58,20.58,0,0,1-2.51,2.16c5.71-1.16,10.19-4.56,12.07-10.84C220.22,247,219.74,243.15,219,239.89Z" transform="translate(-128.56 -167.86)"/><path class="cls-11" d="M198,257a21.59,21.59,0,0,1-2.69-27.27H191s-4.66,12.19-2.48,19.37c3.1,10.14,11.95,10.8,10.26,8.67C198.5,257.5,198.23,257.24,198,257Z" transform="translate(-128.56 -167.86)"/><path class="cls-11" d="M211.91,239.89c-.21,1.74,3.19.29,3.68-2.8a16.08,16.08,0,0,0-.59-7.38h-4.65C211,230.84,212.7,233.14,211.91,239.89Z" transform="translate(-128.56 -167.86)"/><path class="cls-17" d="M228.17,249.59c.79-9-3.58-16.11,1.69-15.84,2.48.13,9.74,16-2.81,27.77,0,0,12.46-2.12,16.85-16.76,5-16.76,9.94,3,.21,13.64-9.32,10.23-28.44,10.65-28.44,10.65S227.19,260.82,228.17,249.59Z" transform="translate(-128.56 -167.86)"/><path class="cls-17" d="M236.88,249.61s5.49-21.49-11.25-28.6c-2.31-1-1.63-7.12,6.31-6,9,1.28,9.25,14.78,8.91,19C239.93,245.42,236.88,249.61,236.88,249.61Z" transform="translate(-128.56 -167.86)"/><path class="cls-17" d="M237.56,209.42c-3.68-4.38-7.72-2.89-8.83-5.74-2.76-7.12,17.81-8.85,17.45,10.55-.31,16.16-4.56,23.39-4.56,23.39S246.46,220,237.56,209.42Z" transform="translate(-128.56 -167.86)"/><path class="cls-17" d="M246.81,235.83s.6-6.23,5.11-8.29S244.28,220.88,246.81,235.83Z" transform="translate(-128.56 -167.86)"/><path class="cls-17" d="M228.49,212.93s-3.6-1.13-4.25-4.06S219.35,212.55,228.49,212.93Z" transform="translate(-128.56 -167.86)"/><path class="cls-17" d="M236.55,197.26s-5.16-2.92-9.21-.55S226.34,187.16,236.55,197.26Z" transform="translate(-128.56 -167.86)"/><path class="cls-17" d="M228.77,232.42a4.72,4.72,0,0,0-3.73-2.49C222.35,229.69,228,225.94,228.77,232.42Z" transform="translate(-128.56 -167.86)"/><path class="cls-18" d="M162.49,246.27a2.2,2.2,0,0,0-1.41-.14,2.71,2.71,0,0,0-1.49.85,4,4,0,0,0-1.05,1.94,3.25,3.25,0,0,0,.17,1.85,2.41,2.41,0,0,0,1.17,1.23,4.15,4.15,0,0,0,2.12.47,1.93,1.93,0,0,0,1.47-.67,3,3,0,0,0,.69-1.34s0,0,0,0c.05-.23,0-.26-.23-.27a8.13,8.13,0,0,1-2.3-.54l-.48-.2a.56.56,0,0,1,.26,0,7.68,7.68,0,0,0,1.79.09,7.31,7.31,0,0,0,.92-.14,1.5,1.5,0,0,1,.6-.06.58.58,0,0,1,.54.45,2.71,2.71,0,0,1-.15,1.88,5.83,5.83,0,0,1-.37.7,3.41,3.41,0,0,1-1.76,1.31,2.44,2.44,0,0,1-.8.13,6,6,0,0,1-3.39-.92,3,3,0,0,1-1.24-1.4,5.27,5.27,0,0,1-.44-1.91,2.55,2.55,0,0,1,.28-1.23,6.09,6.09,0,0,1,.95-1.44,3.93,3.93,0,0,1,1.62-1.1,2.78,2.78,0,0,1,1.59-.13,1.85,1.85,0,0,1,.9.46s.06,0,.06.09Z" transform="translate(-128.56 -167.86)"/><path class="cls-18" d="M183.73,250.7l-.92.84a3.73,3.73,0,0,1-1.32.78l-.69.25a2.15,2.15,0,0,1-2.22-.54,2.19,2.19,0,0,1-.6-1.4c0-.41,0-.83,0-1.24a10,10,0,0,1,.48-3.1,12.3,12.3,0,0,1,.58-1.64,4.48,4.48,0,0,1,.94-1.36.82.82,0,0,1,.22-.18.25.25,0,0,1-.06.16,5.93,5.93,0,0,0-.47,1.59,9.63,9.63,0,0,0-.13,1.61,13.88,13.88,0,0,1-.07,1.44,8.3,8.3,0,0,0,0,1.41,7.6,7.6,0,0,0,0,1.07,2.4,2.4,0,0,0,.12.53.88.88,0,0,0,.1.22.93.93,0,0,0,.78.44,4.16,4.16,0,0,0,1.17-.13,8.29,8.29,0,0,0,1.32-.48,4.33,4.33,0,0,1,.79-.27Z" transform="translate(-128.56 -167.86)"/><path class="cls-18" d="M174,248.51a3.52,3.52,0,0,1,2.13,1.46,1.44,1.44,0,0,1,.09,1.43,3.21,3.21,0,0,1-1,1.21,2.93,2.93,0,0,1-1.33.52,3.49,3.49,0,0,1-1.92-.17,1.92,1.92,0,0,1-1.31-1.67,3.54,3.54,0,0,1,1.14-2.84c.27-.26.58-.49.91-.75a6.72,6.72,0,0,0-.59,1.12,3.76,3.76,0,0,0-.32,1.78,1.72,1.72,0,0,0,.16.63,1,1,0,0,0,.71.59,2,2,0,0,0,2-.33,1.67,1.67,0,0,0,.63-.86.73.73,0,0,0,0-.33,2.08,2.08,0,0,0-.54-1,5.22,5.22,0,0,0-.69-.63S174.09,248.6,174,248.51Z" transform="translate(-128.56 -167.86)"/><path class="cls-18" d="M169.45,252.57a.36.36,0,0,1-.27-.15.89.89,0,0,1-.18-.33,2.59,2.59,0,0,1-.12-1v-.32c-.09,0-.12.06-.16.11-.45.55-.9,1.1-1.32,1.68-.09.13-.19.26-.29.38a.77.77,0,0,1-.79.22.61.61,0,0,1-.48-.62,5.86,5.86,0,0,1,.14-.82c.16-.81.28-1.63.41-2.44l.09-.62s0,0,0,0L167,251c.08,0,.11-.07.15-.11.42-.44.87-.85,1.27-1.31a5.68,5.68,0,0,1,.51-.47.83.83,0,0,1,.44-.21.62.62,0,0,1,.74.57,1,1,0,0,1-.11.41c-.17.38-.33.75-.46,1.14a4,4,0,0,0-.22,1A.57.57,0,0,0,169.45,252.57Z" transform="translate(-128.56 -167.86)"/></g></g></svg>